<svg xmlns="http://www.w3.org/2000/svg" width="370" height="250" viewBox="0 0 370 250">
  <g id="Group_6826" data-name="Group 6826" transform="translate(-8509 13285)">
    <rect id="Rectangle_3380" data-name="Rectangle 3380" width="370" height="250" rx="10" transform="translate(8509 -13285)" fill="#2a1e44"/>
    <path id="Path_18401" data-name="Path 18401" d="M8632.533-12640.219s-5.145-17.219-5.145-27.992a111.017,111.017,0,0,1,5.145-31.262c2.587-7.895,9.306-9.375,14.468-10.178s15.387-2.139,15.387-6.326-15.088-4.232-15.387-15.9-2.979-36.982-6.622-35.525-10.181,2.307-7.846-11.268,6.265-22,7.846-19.49.733-23.924,6.622-30.859,5.5-15.387,15.387-18.461,44.182-8.166,50.928-2.623,18.3,34.9,16.8,41.9,6.463,6.746,6.617,12.762,3.951,20.113,0,23.811-6.542-3.635-6.617,7.863-.111,33.354-6.34,39.227,15.451,4.363,19.669,14.893,9.322,42.129,9.322,49.871v19.561Z" transform="translate(0 -394.781)" fill="#110e22"/>
    <path id="Path_18404" data-name="Path 18404" d="M660.3,30.6h8.4a4.174,4.174,0,0,1,4.2-4.2h17.4V18H672.9A12.6,12.6,0,0,0,660.3,30.6Zm8.4,16.8h8.4a4.174,4.174,0,0,1,4.2-4.2h4.8a12.676,12.676,0,0,0,12.6-12.6V26.4h-8.4v4.2a4.212,4.212,0,0,1-4.2,4.2h-4.8A12.6,12.6,0,0,0,668.7,47.4Zm0,12.6h8.4V51.6h-8.4Z" transform="translate(8010.576 -13220)" fill="#8e3d79"/>
  </g>
</svg>
