<svg id="e8ZfKnY7NFi1" xmlns="http://www.w3.org/2000/svg" xmlns:xlink="http://www.w3.org/1999/xlink" viewBox="0 0 327.29 195" shape-rendering="geometricPrecision" text-rendering="geometricPrecision" width="327.29" height="195"><style><![CDATA[#e8ZfKnY7NFi8_to {animation: e8ZfKnY7NFi8_to__to 3000ms linear infinite normal forwards}@keyframes e8ZfKnY7NFi8_to__to { 0% {transform: translate(31px,45px)} 53.333333% {transform: translate(-186.015156px,45px)} 100% {transform: translate(-186.015156px,45px)}} #e8ZfKnY7NFi8 {animation: e8ZfKnY7NFi8_c_o 3000ms linear infinite normal forwards}@keyframes e8ZfKnY7NFi8_c_o { 0% {opacity: 0} 10% {opacity: 0} 16.666667% {opacity: 1} 40% {opacity: 1} 50% {opacity: 0} 100% {opacity: 0}} #e8ZfKnY7NFi11_to {animation: e8ZfKnY7NFi11_to__to 3000ms linear infinite normal forwards}@keyframes e8ZfKnY7NFi11_to__to { 0% {transform: translate(5459.96px,-15972.7px)} 10% {transform: translate(5459.96px,-15972.7px)} 83.333333% {transform: translate(5666.546607px,-15972.7px)} 100% {transform: translate(5666.546607px,-15972.7px)}} #e8ZfKnY7NFi11 {animation: e8ZfKnY7NFi11_c_o 3000ms linear infinite normal forwards}@keyframes e8ZfKnY7NFi11_c_o { 0% {opacity: 0} 16.666667% {opacity: 0} 30% {opacity: 1} 60% {opacity: 1} 73.333333% {opacity: 0} 100% {opacity: 0}} #e8ZfKnY7NFi17_to {animation: e8ZfKnY7NFi17_to__to 3000ms linear infinite normal forwards}@keyframes e8ZfKnY7NFi17_to__to { 0% {transform: translate(3470.840383px,-19522.1px)} 83.333333% {transform: translate(3442.845004px,-19522.1px)} 100% {transform: translate(3442.845004px,-19522.1px)}}]]></style><defs><linearGradient id="e8ZfKnY7NFi7-fill" x1="0.5" y1="0.892" x2="0.5" y2="0.108" spreadMethod="pad" gradientUnits="objectBoundingBox" gradientTransform="matrix(1 0 0 1 0 0)"><stop id="e8ZfKnY7NFi7-fill-0" offset="0%" stop-color="rgb(192,17,111)"/><stop id="e8ZfKnY7NFi7-fill-1" offset="100%" stop-color="rgb(236,103,26)"/></linearGradient><linearGradient id="e8ZfKnY7NFi9-fill" x1="-0.097" y1="0.5" x2="1.097" y2="0.5" spreadMethod="pad" gradientUnits="objectBoundingBox" gradientTransform="matrix(1 0 0 1 0 0)"><stop id="e8ZfKnY7NFi9-fill-0" offset="0%" stop-color="rgb(221,73,57)"/><stop id="e8ZfKnY7NFi9-fill-1" offset="100%" stop-color="rgb(228,86,43)"/></linearGradient><linearGradient id="e8ZfKnY7NFi10-fill" x1="0.5" y1="-0.262" x2="0.5" y2="1.262" spreadMethod="pad" gradientUnits="objectBoundingBox" gradientTransform="matrix(1 0 0 1 0 0)"><stop id="e8ZfKnY7NFi10-fill-0" offset="0%" stop-color="rgb(91,25,73)"/><stop id="e8ZfKnY7NFi10-fill-1" offset="100%" stop-color="rgb(110,35,80)"/></linearGradient><linearGradient id="e8ZfKnY7NFi12-fill" x1="1.097" y1="0.5" x2="-0.097" y2="0.5" spreadMethod="pad" gradientUnits="objectBoundingBox" gradientTransform="matrix(1 0 0 1 0 0)"><stop id="e8ZfKnY7NFi12-fill-0" offset="0%" stop-color="rgb(231,52,57)"/><stop id="e8ZfKnY7NFi12-fill-1" offset="100%" stop-color="rgb(177,25,67)"/></linearGradient><linearGradient id="e8ZfKnY7NFi17-fill" x1="0.5" y1="1" x2="0.5" y2="0" spreadMethod="pad" gradientUnits="objectBoundingBox" gradientTransform="matrix(1 0 0 1 0 0)"><stop id="e8ZfKnY7NFi17-fill-0" offset="0%" stop-color="rgb(156,25,83)"/><stop id="e8ZfKnY7NFi17-fill-1" offset="100%" stop-color="rgb(152,45,71)"/></linearGradient><linearGradient id="e8ZfKnY7NFi18-fill" x1="0.5" y1="1" x2="0.5" y2="0" spreadMethod="pad" gradientUnits="objectBoundingBox" gradientTransform="matrix(1 0 0 1 0 0)"><stop id="e8ZfKnY7NFi18-fill-0" offset="0%" stop-color="rgb(16,14,33)"/><stop id="e8ZfKnY7NFi18-fill-1" offset="100%" stop-color="rgb(43,31,69)"/></linearGradient></defs><g id="e8ZfKnY7NFi2" transform="matrix(1 0 0 1 -5425 16013)"><g id="e8ZfKnY7NFi3" transform="matrix(1 0 0 1 5425 -16013)" opacity="0.002"><rect id="e8ZfKnY7NFi4" width="327" height="195" rx="0" ry="0" fill="rgb(255,255,255)" stroke="none" stroke-width="1"/><rect id="e8ZfKnY7NFi5" width="326" height="194" rx="0" ry="0" transform="matrix(1 0 0 1 0.5 0.5)" fill="none" stroke="rgb(112,112,112)" stroke-width="1"/></g><g id="e8ZfKnY7NFi6" transform="matrix(1 0 0 1 5470.25 -16017.4)"><circle id="e8ZfKnY7NFi7" r="97.195" transform="matrix(0 -1 1 0 117.893 101.894)" fill="url(#e8ZfKnY7NFi7-fill)" stroke="none" stroke-width="1"/></g><g id="e8ZfKnY7NFi8_to" transform="translate(31,45)"><g id="e8ZfKnY7NFi8" transform="translate(0,0)" opacity="0"><path id="e8ZfKnY7NFi9" d="M3281.429,1938.25C3281.429,1938.25,3328.478,1939.624,3343.265,1940.342C3343.265,1940.342,3284.308,1939.557,3279.265,1939.688L3280.181,1938.576Z" transform="matrix(1 0 0 1 2378.02 -17931.2)" fill="url(#e8ZfKnY7NFi9-fill)" fill-rule="evenodd" stroke="none" stroke-width="1"/><path id="e8ZfKnY7NFi10" d="M3216.476,1930.63L3209.932,1930.63L3208.853,1931.906L3205.679,1931.873L3206.971,1933.165L3212.68,1933.165L3213.464,1932.2L3215.464,1931.808Z" transform="matrix(1 0 0 1 2445.69 -17924.2)" fill="url(#e8ZfKnY7NFi10-fill)" fill-rule="evenodd" stroke="none" stroke-width="1"/></g></g><g id="e8ZfKnY7NFi11_to" transform="translate(5459.96,-15972.7)"><g id="e8ZfKnY7NFi11" transform="translate(0,0)" opacity="0"><path id="e8ZfKnY7NFi12" d="M4805.875,2852.65C4805.875,2852.65,4779.175,2853.43,4770.79,2853.838C4770.79,2853.838,4804.244,2853.392,4807.103,2853.466L4806.583,2852.835Z" transform="matrix(1 0 0 1 -4770.79 -2852.3)" fill="url(#e8ZfKnY7NFi12-fill)" fill-rule="evenodd" stroke="none" stroke-width="1"/><path id="e8ZfKnY7NFi13" d="M4729.06,2848.331L4732.773,2848.331L4733.385,2849.055L4735.185,2849.036L4734.451,2849.769L4731.212,2849.769L4730.767,2849.222L4729.634,2848.999Z" transform="matrix(1 0 0 1 -4695.52 -2848.33)" fill="rgb(61,29,61)" fill-rule="evenodd" stroke="none" stroke-width="1"/></g></g><g id="e8ZfKnY7NFi14" clip-path="url(#e8ZfKnY7NFi19)"><g id="e8ZfKnY7NFi15"><g id="e8ZfKnY7NFi16"><g id="e8ZfKnY7NFi17_to" transform="translate(3470.840383,-19522.1)"><path id="e8ZfKnY7NFi17" d="M2009.53,3704.718L2009.53,3661.445L2018.624,3652.352L2018.624,3626.534L2026.791,3618.366L2026.791,3624.287L2030.064,3626.177L2030.064,3648.956L2032.941,3650.616L2032.941,3670.8L2037.803,3670.8L2037.803,3678.953L2041.513,3675.243L2041.513,3656.9L2044.152,3654.261L2044.152,3631.291L2050.852,3637.991L2050.852,3661.703L2052.269,3663.121L2052.269,3673.306L2050.731,3674.844L2050.731,3681.981L2056.705,3671.634L2056.705,3618.64L2063.305,3618.64L2063.305,3645.189L2061.633,3646.549L2061.633,3655.849L2063.41,3656.789L2063.41,3671.422L2066.546,3671.422L2066.546,3679.68L2068.946,3679.68L2068.946,3660.03L2070.827,3660.03L2070.827,3634.421L2078.143,3627.104L2078.143,3604.684L2075.543,3600.184L2075.543,3592.354L2091.921,3575.975L2091.921,3609.495L2094.581,3611.031L2094.581,3670.331L2101.715,3663.197L2101.715,3608.87L2106.366,3604.222L2106.366,3565.65L2134.966,3582.162L2134.966,3639.7L2130.673,3643.992L2130.673,3654.437L2135.364,3657.145L2135.364,3683.5L2141.533,3677.331L2141.533,3593.4L2147.649,3599.517L2147.649,3660.505L2150.84,3660.505L2150.84,3610.543L2166.308,3626.012L2166.308,3651.307L2171.116,3654.082L2171.116,3681.618L2177.159,3678.129L2177.159,3663.8L2179.696,3663.8L2179.696,3640.649L2186.225,3640.649L2186.225,3633.698L2189.481,3629.543L2189.481,3635.463L2192.754,3637.354L2192.754,3666.9L2209.513,3650.617L2209.513,3670.8L2214.373,3670.8L2214.373,3682.676L2223.728,3668.133L2223.728,3649.789L2226.367,3647.151L2226.367,3631.517L2230.248,3636.527L2230.248,3643.213L2231.665,3644.631L2231.665,3654.816L2230.127,3656.355L2230.127,3663.492L2233.281,3657.77L2233.281,3618.645L2239.881,3618.645L2239.881,3645.194L2238.209,3646.554L2238.209,3655.854L2239.986,3656.794L2239.986,3671.427L2243.122,3671.427L2243.122,3679.685L2245.522,3679.685L2245.522,3660.035L2247.403,3660.035L2247.403,3634.426L2254.719,3627.109L2254.719,3604.689L2252.119,3600.189L2252.119,3592.359L2268.496,3608.222L2268.496,3609.5L2271.156,3611.036L2271.156,3670.336L2272.127,3669.364L2272.127,3705.241L2209.213,3704.864L2209.213,3705.926Z" transform="translate(0,0)" fill="url(#e8ZfKnY7NFi17-fill)" fill-rule="evenodd" stroke="none" stroke-width="1"/></g><path id="e8ZfKnY7NFi18" style="mix-blend-mode:multiply;isolation:isolate" d="M0,0L105.76,0L105.76,15.513L0,15.513Z" transform="matrix(1 0 0 1 5535.27 -15831.7)" opacity="0.277" fill="url(#e8ZfKnY7NFi18-fill)" stroke="none" stroke-width="1"/></g></g><clipPath id="e8ZfKnY7NFi19"><circle id="e8ZfKnY7NFi20" r="97.5" transform="matrix(1 0 0 1 5588.5 -15915.5)" fill="rgb(255,255,255)" stroke="none" stroke-width="1"/></clipPath></g></g></svg>