<svg xmlns="http://www.w3.org/2000/svg" width="159.039" height="22.4" viewBox="0 0 159.039 22.4">
  <path id="Path_18420" data-name="Path 18420" d="M172.74,24.8h10.912a5.709,5.709,0,0,0,5.728-5.76V15.36a5.689,5.689,0,0,0-5.728-5.76H170.5v3.52h13.152a2.247,2.247,0,0,1,2.24,2.24v3.68a2.247,2.247,0,0,1-2.24,2.24H172.74ZM166.98,32h3.52V13.12h-3.52Zm24.96-11.2h3.488V9.6H191.94ZM210.852,32h3.488V9.6h-3.488ZM191.94,32h3.52V26.56a2.226,2.226,0,0,1,2.24-2.24h10.88V20.8H197.7a5.7,5.7,0,0,0-5.76,5.76Zm43.84,0h3.52V15.36a5.723,5.723,0,0,0-5.792-5.76h-13.12v3.52h13.12a2.254,2.254,0,0,1,2.272,2.24ZM216.9,32h3.488V24.8H233.54V21.28H220.388V13.12H216.9Zm43.84-15.68h3.52c0-3.872-2.368-6.72-5.76-6.72H245.38v3.52h12.8C259.748,13.12,260.74,14.592,260.74,16.32Zm0,12.16h3.52V24.8a5.51,5.51,0,0,0-5.76-5.76H247.62a2.247,2.247,0,0,1-2.24-2.24V13.12h-3.52V16.8a5.546,5.546,0,0,0,5.76,5.76H258.5a2.226,2.226,0,0,1,2.24,2.24ZM247.62,32h13.12V28.48h-12.8c-1.536,0-2.56-1.472-2.56-3.2h-3.52C241.86,29.12,244.26,32,247.62,32Zm22.72-18.88h18.88V9.6H270.34ZM272.58,32h16.64V28.48H272.58a2.247,2.247,0,0,1-2.24-2.24V13.12h-3.52V26.24A5.736,5.736,0,0,0,272.58,32Zm-.032-9.44H286.98V19.04H272.548Zm42.464,3.68H318.5V15.36a5.52,5.52,0,0,0-5.728-5.76H305.54v3.52h7.232a2.247,2.247,0,0,1,2.24,2.24ZM304.58,32h21.44V28.48H304.58Z" transform="translate(-166.98 -9.6)" fill="#ff8ec9"/>
</svg>
