<svg xmlns="http://www.w3.org/2000/svg" width="160" height="22.4" viewBox="0 0 160 22.4">
  <path id="Path_18418" data-name="Path 18418" d="M172.26,24.8h10.912a5.709,5.709,0,0,0,5.728-5.76V15.36a5.689,5.689,0,0,0-5.728-5.76H170.02v3.52h13.152a2.247,2.247,0,0,1,2.24,2.24v3.68a2.247,2.247,0,0,1-2.24,2.24H172.26ZM166.5,32h3.52V13.12H166.5Zm24.96-11.2h3.488V9.6H191.46ZM210.372,32h3.488V9.6h-3.488ZM191.46,32h3.52V26.56a2.226,2.226,0,0,1,2.24-2.24H208.1V20.8H197.22a5.7,5.7,0,0,0-5.76,5.76Zm43.84,0h3.52V15.36a5.723,5.723,0,0,0-5.792-5.76h-13.12v3.52h13.12a2.254,2.254,0,0,1,2.272,2.24Zm-18.88,0h3.488V24.8H233.06V21.28H219.908V13.12H216.42Zm43.84-15.68h3.52c0-3.872-2.368-6.72-5.76-6.72H244.9v3.52h12.8C259.268,13.12,260.26,14.592,260.26,16.32Zm0,12.16h3.52V24.8a5.51,5.51,0,0,0-5.76-5.76H247.14a2.247,2.247,0,0,1-2.24-2.24V13.12h-3.52V16.8a5.546,5.546,0,0,0,5.76,5.76h10.88a2.226,2.226,0,0,1,2.24,2.24ZM247.14,32h13.12V28.48h-12.8c-1.536,0-2.56-1.472-2.56-3.2h-3.52C241.38,29.12,243.78,32,247.14,32Zm22.72-18.88h18.88V9.6H269.86ZM272.1,32h16.64V28.48H272.1a2.247,2.247,0,0,1-2.24-2.24V13.12h-3.52V26.24A5.736,5.736,0,0,0,272.1,32Zm-.032-9.44H286.5V19.04H272.068Zm50.912,5.92h3.52V25.5a6.433,6.433,0,0,0-1.728-4.7,6.791,6.791,0,0,0,1.728-4.736c0-3.392-2.208-6.464-5.92-6.464H304.74v3.52h15.84c1.408,0,2.4,1.216,2.4,2.944a2.734,2.734,0,0,1-2.4,2.976H306.34v3.52h14.24a2.7,2.7,0,0,1,2.4,2.944ZM304.1,32h18.88V28.48H304.1Z" transform="translate(-166.5 -9.6)" fill="#ff8ec9"/>
</svg>
