<svg xmlns="http://www.w3.org/2000/svg" xmlns:xlink="http://www.w3.org/1999/xlink" width="401.4" height="64" viewBox="0 0 401.4 64">
  <defs>
    <filter id="Path_18398" x="0" y="0" width="401.4" height="64" filterUnits="userSpaceOnUse">
      <feOffset input="SourceAlpha"/>
      <feGaussianBlur stdDeviation="2.5" result="blur"/>
      <feFlood flood-color="#bc116f"/>
      <feComposite operator="in" in2="blur"/>
      <feComposite in="SourceGraphic"/>
    </filter>
  </defs>
  <g transform="matrix(1, 0, 0, 1, 0, 0)" filter="url(#Path_18398)">
    <path id="Path_18398-2" data-name="Path 18398" d="M527.6,70h7.7V60.2a14.714,14.714,0,0,0-3.78-9.8,14.714,14.714,0,0,0,3.78-9.8v-7A12.46,12.46,0,0,0,522.7,21H494v7.7h28.7a4.87,4.87,0,0,1,4.9,4.9v7c0,2.73-2.17,5.95-4.9,5.95H498.9v7.7h23.8c2.73,0,4.9,3.22,4.9,5.95Zm-41.3,0H494V28.7h-7.7Zm95.9-7.7h7.7V33.6c0-7.42-5.25-12.6-12.6-12.6H548.6v7.7h28.7a4.914,4.914,0,0,1,4.9,4.9ZM553.5,70h28.7V62.3H553.5a4.87,4.87,0,0,1-4.9-4.9V28.7h-7.7V57.4C540.9,64.82,546.08,70,553.5,70Zm83.3,0h7.7V33.6A12.519,12.519,0,0,0,631.83,21h-28.7v7.7h28.7a4.93,4.93,0,0,1,4.97,4.9Zm-41.3,0h7.63V54.25H631.9v-7.7H603.13V28.7H595.5Zm95.9-7.7h7.7V33.6A12.46,12.46,0,0,0,686.5,21H657.8v7.7h28.7a4.87,4.87,0,0,1,4.9,4.9ZM650.1,70h41.3V62.3H657.8V28.7h-7.7Zm84,0c7.63,0,9.45-11.62,11.06-20.37,1.96-10.29,4.2-20.93,10.64-20.93V21c-12.11,0-15.33,12.53-18.2,27.16-.77,4.13-1.96,12.18-3.5,13.44-1.33-.91-2.8-9.24-3.64-13.51C727.73,33.81,724.37,21,712.4,21v7.7c6.44,0,8.54,10.78,10.5,20.79C724.72,58.8,726.61,70,734.1,70Zm-29.4,0h7.7V28.7h-7.7Zm51.1,0h7.7V28.7h-7.7Zm54.6,0h7.7V33.6A12.519,12.519,0,0,0,805.43,21h-28.7v7.7h28.7a4.93,4.93,0,0,1,4.97,4.9Zm-41.3,0h7.63V54.25H805.5v-7.7H776.73V28.7H769.1Zm67.2-15.75h23.87a12.488,12.488,0,0,0,12.53-12.6V33.6A12.445,12.445,0,0,0,860.17,21H831.4v7.7h28.77a4.914,4.914,0,0,1,4.9,4.9v8.05a4.914,4.914,0,0,1-4.9,4.9H836.3ZM823.7,70h7.7V28.7h-7.7Z" transform="translate(-478.8 -13.5)" fill="#ff0294"/>
  </g>
</svg>
