<svg xmlns="http://www.w3.org/2000/svg" xmlns:xlink="http://www.w3.org/1999/xlink" width="495.6" height="60" viewBox="0 0 495.6 60">
  <defs>
    <filter id="Path_18395" x="0" y="0" width="495.6" height="60" filterUnits="userSpaceOnUse">
      <feOffset input="SourceAlpha"/>
      <feGaussianBlur stdDeviation="3" result="blur"/>
      <feFlood flood-color="#bc116f"/>
      <feComposite operator="in" in2="blur"/>
      <feComposite in="SourceGraphic"/>
    </filter>
  </defs>
  <g transform="matrix(1, 0, 0, 1, 0, 0)" filter="url(#Path_18395)">
    <path id="Path_18395-2" data-name="Path 18395" d="M440.7,53.4h6.6V18h-6.6Zm43.8,0h6.6V18h-6.6ZM447.3,60c9.9,0,13.02-8.52,15.48-18.72.6-2.58,1.62-7.32,3.12-8.16,1.44.84,2.46,5.34,3.06,8.1,2.4,10.2,5.4,18.78,15.54,18.78V53.4c-5.82,0-7.44-6.54-9.12-13.74-1.56-6.72-3.36-13.26-9.48-13.26s-7.74,6.3-9.54,13.38c-1.68,7.02-3.42,13.62-9.06,13.62Zm48.6-21h6.54V18H495.9Zm35.46,21h6.54V18h-6.54ZM495.9,60h6.6V49.8a4.174,4.174,0,0,1,4.2-4.2h20.4V39H506.7a10.68,10.68,0,0,0-10.8,10.8Zm82.2-6.6h6.6V28.8A10.365,10.365,0,0,0,573.9,18H549.3v6.6h24.6a4.212,4.212,0,0,1,4.2,4.2ZM553.5,60h24.6V53.4H553.5a4.174,4.174,0,0,1-4.2-4.2V24.6h-6.6V49.2C542.7,55.56,547.14,60,553.5,60Zm95.4,0h6.6V28.8A10.731,10.731,0,0,0,644.64,18h-24.6v6.6h24.6a4.225,4.225,0,0,1,4.26,4.2Zm-35.4,0h6.54V46.5H644.7V39.9H620.04V24.6H613.5Zm82.2,0h6.6V51.6a12.612,12.612,0,0,0-3.24-8.4,12.612,12.612,0,0,0,3.24-8.4v-6A10.68,10.68,0,0,0,691.5,18H666.9v6.6h24.6a4.174,4.174,0,0,1,4.2,4.2v6c0,2.34-1.86,5.1-4.2,5.1H671.1v6.6h20.4c2.34,0,4.2,2.76,4.2,5.1Zm-35.4,0h6.6V24.6h-6.6Zm53.4-35.4h35.4V18H713.7ZM717.9,60h31.2V53.4H717.9a4.212,4.212,0,0,1-4.2-4.2V24.6h-6.6V49.2A10.755,10.755,0,0,0,717.9,60Zm-.06-17.7H744.9V35.7H717.84ZM777.9,53.4h6.6V18h-6.6Zm43.8,0h6.6V18h-6.6ZM784.5,60c9.9,0,13.02-8.52,15.48-18.72.6-2.58,1.62-7.32,3.12-8.16,1.44.84,2.46,5.34,3.06,8.1,2.4,10.2,5.4,18.78,15.54,18.78V53.4c-5.82,0-7.44-6.54-9.12-13.74-1.56-6.72-3.36-13.26-9.48-13.26s-7.74,6.3-9.54,13.38c-1.68,7.02-3.42,13.62-9.06,13.62Zm55.2-35.4h35.4V18H839.7ZM843.9,60h31.2V53.4H843.9a4.212,4.212,0,0,1-4.2-4.2V24.6h-6.6V49.2A10.755,10.755,0,0,0,843.9,60Zm-.06-17.7H870.9V35.7H843.84ZM879.9,30.6h6.6c0-3.24,1.26-6,4.2-6h21V18h-21C883.74,18,879.9,23.34,879.9,30.6Zm8.4,18.6h6.6c0-3.24,1.26-6,4.2-6h8.4a10.4,10.4,0,0,0,10.8-10.8V24.6h-6.6v7.8a4.212,4.212,0,0,1-4.2,4.2h-8.4C892.14,36.6,888.3,41.94,888.3,49.2Zm0,10.8h6.6V53.4h-6.6Z" transform="translate(-431.7 -9)" fill="#ff0294"/>
  </g>
</svg>
