<svg xmlns="http://www.w3.org/2000/svg" xmlns:xlink="http://www.w3.org/1999/xlink" width="643.6" height="134" viewBox="0 0 643.6 134">
  <defs>
    <filter id="Path_18400" x="0" y="0" width="643.6" height="134" filterUnits="userSpaceOnUse">
      <feOffset input="SourceAlpha"/>
      <feGaussianBlur stdDeviation="2.5" result="blur"/>
      <feFlood flood-color="#bc116f"/>
      <feComposite operator="in" in2="blur"/>
      <feComposite in="SourceGraphic"/>
    </filter>
  </defs>
  <g transform="matrix(1, 0, 0, 1, 0, 0)" filter="url(#Path_18400)">
    <path id="Path_18400-2" data-name="Path 18400" d="M501.7,70c7.63,0,9.45-11.62,11.06-20.37,1.96-10.29,4.2-20.93,10.64-20.93V21c-12.11,0-15.33,12.53-18.2,27.16-.77,4.13-1.96,12.18-3.5,13.44-1.33-.91-2.8-9.24-3.64-13.51C495.33,33.81,491.97,21,480,21v7.7c6.44,0,8.54,10.78,10.5,20.79C492.32,58.8,494.21,70,501.7,70Zm-29.4,0H480V28.7h-7.7Zm51.1,0h7.7V28.7h-7.7Zm21-41.3h41.3V21H544.4ZM549.3,70h36.4V62.3H549.3a4.914,4.914,0,0,1-4.9-4.9V28.7h-7.7V57.4A12.548,12.548,0,0,0,549.3,70Zm-.07-20.65H580.8v-7.7H549.23ZM599,28.7h41.3V21H599ZM603.9,70h36.4V62.3H603.9a4.914,4.914,0,0,1-4.9-4.9V28.7h-7.7V57.4A12.548,12.548,0,0,0,603.9,70Zm-.07-20.65H635.4v-7.7H603.83ZM666.62,70h7.63V33.6A12.46,12.46,0,0,0,661.65,21H645.9v7.7h15.75a4.93,4.93,0,0,1,4.97,4.9Zm7.63-41.3H694.9V21H674.25ZM749.22,70h7.63V33.6A12.46,12.46,0,0,0,744.25,21H728.5v7.7h15.75a4.93,4.93,0,0,1,4.97,4.9Zm7.63-41.3H777.5V21H756.85ZM783.1,45.5h7.63V21H783.1ZM824.47,70h7.63V21h-7.63ZM783.1,70h7.7V58.1a4.87,4.87,0,0,1,4.9-4.9h23.8V45.5H795.7a12.46,12.46,0,0,0-12.6,12.6Zm62.3-41.3h41.3V21H845.4ZM850.3,70h36.4V62.3H850.3a4.914,4.914,0,0,1-4.9-4.9V28.7h-7.7V57.4A12.548,12.548,0,0,0,850.3,70Zm-.07-20.65H881.8v-7.7H850.23ZM406.5,132.3h7.7v-6.51a14.073,14.073,0,0,0-3.78-10.29,14.855,14.855,0,0,0,3.78-10.36c0-7.42-4.83-14.14-12.95-14.14H372.83v7.7h28.42c2.73,0,5.25,2.66,5.25,6.44s-2.52,6.51-5.25,6.51H377.73v7.7h23.52c2.73,0,5.25,2.66,5.25,6.44ZM377.73,140H406.5v-7.7H377.73a4.914,4.914,0,0,1-4.9-4.9V98.7H365.2v28.7A12.488,12.488,0,0,0,377.73,140ZM419.8,98.7h44.8V91H419.8ZM450.95,140H464.6v-7.7H450.95a4.914,4.914,0,0,1-4.9-4.9V103.6h-7.63v23.8A12.488,12.488,0,0,0,450.95,140Zm-31.15,0h18.55v-7.7H419.8Zm63,0H515v-7.7H482.8a4.87,4.87,0,0,1-4.9-4.9V91h-7.7v36.4A12.46,12.46,0,0,0,482.8,140Zm50.4,0h32.2v-7.7H533.2a4.87,4.87,0,0,1-4.9-4.9V91h-7.7v36.4A12.46,12.46,0,0,0,533.2,140ZM571,98.7h44.8V91H571ZM602.15,140H615.8v-7.7H602.15a4.914,4.914,0,0,1-4.9-4.9V103.6h-7.63v23.8A12.488,12.488,0,0,0,602.15,140ZM571,140h18.55v-7.7H571Zm91.7-7.7h7.7V103.6c0-7.42-5.25-12.6-12.6-12.6H629.1v7.7h28.7a4.914,4.914,0,0,1,4.9,4.9ZM634,140h28.7v-7.7H634a4.87,4.87,0,0,1-4.9-4.9V98.7h-7.7v28.7C621.4,134.82,626.58,140,634,140Zm83.3,0v-7.7c-5.25,0-9.73-10.64-13.3-18.34C698.82,101.92,693.64,91,683.7,91v7.7c5.25,0,9.73,10.43,13.23,18.2C702.04,128.38,707.15,140,717.3,140Zm0-7.7H725V91h-7.7ZM676,140h7.7V98.7H676Zm95.9,0h7.7V103.6A12.519,12.519,0,0,0,766.93,91h-28.7v7.7h28.7a4.93,4.93,0,0,1,4.97,4.9Zm-41.3,0h7.63V124.25H767v-7.7H738.23V98.7H730.6Zm54.6-41.3H830V91H785.2ZM816.35,140H830v-7.7H816.35a4.914,4.914,0,0,1-4.9-4.9V103.6h-7.63v23.8A12.488,12.488,0,0,0,816.35,140Zm-31.15,0h18.55v-7.7H785.2Zm91.7,0h7.7v-9.8a14.714,14.714,0,0,0-3.78-9.8,14.714,14.714,0,0,0,3.78-9.8v-7A12.46,12.46,0,0,0,872,91H843.3v7.7H872a4.87,4.87,0,0,1,4.9,4.9v7c0,2.73-2.17,5.95-4.9,5.95H848.2v7.7H872c2.73,0,4.9,3.22,4.9,5.95Zm-41.3,0h7.7V98.7h-7.7Zm62.3-41.3h41.3V91H897.9Zm4.9,41.3h36.4v-7.7H902.8a4.914,4.914,0,0,1-4.9-4.9V98.7h-7.7v28.7A12.548,12.548,0,0,0,902.8,140Zm-.07-20.65H934.3v-7.7H902.73ZM986.1,105.7h7.7c0-8.47-5.18-14.7-12.6-14.7H952.5v7.7h28C983.93,98.7,986.1,101.92,986.1,105.7Zm0,26.6h7.7v-8.05c0-7.42-5.18-12.6-12.6-12.6H957.4a4.914,4.914,0,0,1-4.9-4.9V98.7h-7.7v8.05a12.131,12.131,0,0,0,12.6,12.6h23.8a4.87,4.87,0,0,1,4.9,4.9ZM957.4,140h28.7v-7.7h-28c-3.36,0-5.6-3.22-5.6-7h-7.7C944.8,133.7,950.05,140,957.4,140Z" transform="translate(-357.7 -13.5)" fill="#ff0294"/>
  </g>
</svg>
