<svg id="eFf9aKNEPvt1" xmlns="http://www.w3.org/2000/svg" xmlns:xlink="http://www.w3.org/1999/xlink" viewBox="0 0 709.5 220.2" shape-rendering="geometricPrecision" text-rendering="geometricPrecision" width="709.5" height="220.2"><style><![CDATA[#eFf9aKNEPvt2 {animation-name: eFf9aKNEPvt2__fl, eFf9aKNEPvt2_f_p;animation-duration: 2000ms;animation-fill-mode: forwards;animation-timing-function: linear;animation-direction: normal;animation-iteration-count: infinite;}@keyframes eFf9aKNEPvt2__fl { 0% {filter: drop-shadow(0px 0px 2.828427px rgba(253,255,0,0.5))} 20% {filter: drop-shadow(0px 0px 2.828427px rgba(255,0,172,0.6))} 40% {filter: drop-shadow(0px 0px 2.828427px rgba(0,255,147,0.8))} 60% {filter: drop-shadow(0px 0px 2.828427px rgb(255,196,0))} 80% {filter: drop-shadow(0px 0px 2.828427px rgb(255,0,148))} 100% {filter: drop-shadow(0px 0px 2.828427px rgba(200,200,200,0.7))}}@keyframes eFf9aKNEPvt2_f_p { 0% {fill: rgb(253,255,0)} 20% {fill: rgb(255,2,172)} 40% {fill: rgb(0,255,147)} 60% {fill: rgb(255,196,0)} 80% {fill: rgb(255,2,172)} 100% {fill: rgb(255,211,0)}}]]></style><path id="eFf9aKNEPvt2" style="filter:drop-shadow(0px 0px 2.828427px rgba(253,255,0,0.5))" d="M307.797273,84.348201L316.913636,84.348201L316.913636,40.85523C316.958911,36.848618,315.387354,32.992891,312.554206,30.159608C309.721057,27.326325,305.865513,25.754694,301.859091,25.799971L283.040909,25.799971L283.040909,35.000407L301.859091,35.000407C303.423457,34.987463,304.928696,35.597477,306.042725,36.695867C307.156753,37.794257,307.788027,39.290764,307.797273,40.85523ZM316.913636,35.000407L341.586364,35.000407L341.586364,25.799971L316.913636,25.799971ZM348.277273,55.074086L357.393636,55.074086L357.393636,25.799971L348.277273,25.799971ZM397.706364,84.348201L406.822727,84.348201L406.822727,25.799971L397.706364,25.799971ZM348.277273,84.348201L357.477273,84.348201L357.477273,70.129345C357.467622,68.573611,358.081339,67.078799,359.181378,65.978708C360.281417,64.878617,361.776158,64.264871,363.331818,64.274522L391.768182,64.274522L391.768182,55.074086L363.331818,55.074086C359.325396,55.028809,355.469852,56.60044,352.636703,59.433723C349.803555,62.267006,348.231998,66.122733,348.277273,70.129345ZM422.713636,35.000407L472.059091,35.000407L472.059091,25.799971L422.713636,25.799971ZM428.568182,84.348201L472.059091,84.348201L472.059091,75.147765L428.568182,75.147765C425.338796,75.138151,422.72325,72.522481,422.713636,69.292942L422.713636,35.000407L413.513636,35.000407L413.513636,69.292942C413.497004,73.29092,415.077763,77.129956,417.90465,79.956979C420.731539,82.784,424.570393,84.364834,428.568182,84.348201ZM428.484545,59.674304L466.204545,59.674304L466.204545,50.473868L428.484545,50.473868ZM561.55,84.348201L570.75,84.348201L570.75,72.638555C570.736386,68.312596,569.128389,64.143519,566.233636,60.928909C569.128389,57.714299,570.736386,53.545222,570.75,49.219263L570.75,40.85523C570.795275,36.848618,569.223718,32.992891,566.390569,30.159608C563.557421,27.326325,559.701877,25.754694,555.695455,25.799971L521.404545,25.799971L521.404545,35.000407L555.695455,35.000407C557.251115,34.990756,558.745856,35.604502,559.845895,36.704593C560.945933,37.804685,561.55965,39.299496,561.55,40.85523L561.55,49.219263C561.55,52.481236,558.957273,56.328691,555.695455,56.328691L527.259091,56.328691L527.259091,65.529127L555.695455,65.529127C558.957273,65.529127,561.55,69.376582,561.55,72.638555ZM512.204545,84.348201L521.404545,84.348201L521.404545,35.000407L512.204545,35.000407ZM626.786364,75.147765L635.986364,75.147765L635.986364,40.85523C635.986364,31.989355,629.713636,25.799971,620.931818,25.799971L586.640909,25.799971L586.640909,35.000407L620.931818,35.000407C624.161204,35.010021,626.77675,37.625691,626.786364,40.85523ZM592.495455,84.348201L626.786364,84.348201L626.786364,75.147765L592.495455,75.147765C590.939794,75.157416,589.445054,74.54367,588.345015,73.443579C587.244976,72.343487,586.631259,70.848676,586.640909,69.292942L586.640909,35.000407L577.440909,35.000407L577.440909,69.292942C577.440909,78.158817,583.63,84.348201,592.495455,84.348201ZM692.022727,84.348201L701.222727,84.348201L701.222727,40.85523C701.248864,36.839826,699.659629,32.982511,696.812529,30.151007C693.965431,27.319504,690.099553,25.751588,686.084545,25.799971L651.793636,25.799971L651.793636,35.000407L686.084545,35.000407C687.648911,34.987463,689.154151,35.597477,690.268179,36.695867C691.382208,37.794257,692.013482,39.290764,692.022727,40.85523ZM642.677273,84.348201L651.793636,84.348201L651.793636,65.529127L686.168182,65.529127L686.168182,56.328691L651.793636,56.328691L651.793636,35.000407L642.677273,35.000407ZM757.259091,75.147765L766.459091,75.147765L766.459091,40.85523C766.504365,36.848618,764.932809,32.992891,762.09966,30.159608C759.266511,27.326325,755.410967,25.754694,751.404545,25.799971L717.113636,25.799971L717.113636,35.000407L751.404545,35.000407C752.960206,34.990756,754.454946,35.604502,755.554985,36.704593C756.655024,37.804685,757.268741,39.299496,757.259091,40.85523ZM707.913636,84.348201L757.259091,84.348201L757.259091,75.147765L717.113636,75.147765L717.113636,35.000407L707.913636,35.000407ZM204.506364,162.153158L213.622727,162.153158L213.622727,118.660187C213.668002,114.653575,212.096445,110.797848,209.263297,107.964565C206.430148,105.131282,202.574604,103.559651,198.568182,103.604928L179.75,103.604928L179.75,112.805364L198.568182,112.805364C200.132547,112.79242,201.637787,113.402433,202.751816,114.500823C203.865844,115.599213,204.497118,117.095721,204.506364,118.660187ZM213.622727,112.805364L238.295455,112.805364L238.295455,103.604928L213.622727,103.604928ZM294.331818,152.952722L303.531818,152.952722L303.531818,118.660187C303.531818,109.794312,297.259091,103.604928,288.477273,103.604928L254.186364,103.604928L254.186364,112.805364L288.477273,112.805364C291.706658,112.814978,294.322205,115.430648,294.331818,118.660187ZM260.040909,162.153158L294.331818,162.153158L294.331818,152.952722L260.040909,152.952722C258.485248,152.962372,256.990508,152.348626,255.890469,151.248535C254.79043,150.148444,254.176713,148.653633,254.186364,147.097899L254.186364,112.805364L244.986364,112.805364L244.986364,147.097899C244.986364,155.963773,251.175455,162.153158,260.040909,162.153158ZM370.942727,147.097899L380.059091,147.097899L380.059091,118.660187C380.059091,109.877952,373.87,103.604928,365.088182,103.604928L346.186364,103.604928L346.186364,112.805364L365.088182,112.805364C368.317568,112.814978,370.933114,115.430648,370.942727,118.660187ZM343.677273,162.153158L399.713636,162.153158L399.713636,152.952722L343.677273,152.952722ZM489.204545,152.952722L498.404545,152.952722L498.404545,145.172226C498.404545,139.401043,496.648182,135.97179,493.888182,132.877098C496.926193,129.483258,498.543192,125.051274,498.404545,120.498329C498.404545,111.632454,492.633636,103.602983,482.931818,103.602983L448.975455,103.602983L448.975455,112.803419L482.931818,112.803419C486.193636,112.803419,489.204545,115.981751,489.204545,120.498329C489.204545,125.014907,486.189746,128.278825,482.931818,128.278825L454.82611,128.278825L454.82611,137.479261L482.931818,137.479261C486.193636,137.479261,489.204545,140.657593,489.204545,145.174171ZM454.82611,162.153158L489.204545,162.153158L489.204545,152.952722L454.82611,152.952722C451.596724,152.943108,448.981178,150.327437,448.971564,147.097899L448.971564,112.805364L439.859091,112.805364L439.859091,147.097899C439.823458,151.086436,441.386064,154.92322,444.19813,157.751865C447.010196,160.58051,450.837622,162.165536,454.82611,162.153158ZM505.091564,112.805364L558.618837,112.805364L558.618837,103.604928L505.095455,103.604928ZM542.313636,162.153158L558.622727,162.153158L558.622727,152.952722L542.313636,152.952722C539.084251,152.943108,536.468704,150.327437,536.459091,147.097899L536.459091,118.660187L527.342727,118.660187L527.342727,147.097899C527.307085,151.087111,528.870223,154.924493,531.683134,157.753252C534.496044,160.582011,538.324476,162.166577,542.313636,162.153158ZM505.095455,162.153158L527.259091,162.153158L527.259091,152.952722L505.095455,152.952722ZM580.368182,162.153158L618.840909,162.153158L618.840909,152.952722L580.368182,152.952722C578.812521,152.962372,577.317781,152.348626,576.217742,151.248535C575.117703,150.148444,574.503986,148.653633,574.513636,147.097899L574.513636,103.604928L565.313636,103.604928L565.313636,147.097899C565.268362,151.104511,566.839918,154.960237,569.673067,157.79352C572.506216,160.626803,576.36176,162.198434,580.368182,162.153158ZM640.586364,162.153158L679.059091,162.153158L679.059091,152.952722L640.586364,152.952722C639.030703,152.962372,637.535963,152.348626,636.435924,151.248535C635.335885,150.148444,634.722168,148.653633,634.731818,147.097899L634.731818,103.604928L625.531818,103.604928L625.531818,147.097899C625.486544,151.104511,627.0581,154.960237,629.891249,157.79352C632.724398,160.626803,636.579942,162.198434,640.586364,162.153158ZM685.75,112.805364L739.277273,112.805364L739.277273,103.604928L685.75,103.604928ZM722.968182,162.153158L739.277273,162.153158L739.277273,152.952722L722.968182,152.952722C719.738796,152.943108,717.12325,150.327437,717.113636,147.097899L717.113636,118.660187L707.997273,118.660187L707.997273,147.097899C707.96163,151.087111,709.524768,154.924493,712.337679,157.753252C715.15059,160.582011,718.979021,162.166577,722.968182,162.153158ZM685.75,162.153158L707.913636,162.153158L707.913636,152.952722L685.75,152.952722ZM795.313636,152.952722L804.513636,152.952722L804.513636,118.660187C804.513636,109.794312,798.240909,103.604928,789.459091,103.604928L755.168182,103.604928L755.168182,112.805364L789.459091,112.805364C792.688477,112.814978,795.304023,115.430648,795.313636,118.660187ZM761.022727,162.153158L795.313636,162.153158L795.313636,152.952722L761.022727,152.952722C759.467067,152.962372,757.972326,152.348626,756.872287,151.248535C755.772248,150.148444,755.158532,148.653633,755.168182,147.097899L755.168182,112.805364L745.968182,112.805364L745.968182,147.097899C745.968182,155.963773,752.157273,162.153158,761.022727,162.153158ZM860.55,162.153158L860.55,152.952722C854.277273,152.952722,848.924545,140.239392,844.659091,131.038956C838.47,116.652819,832.280909,103.604928,820.404545,103.604928L820.404545,112.805364C826.677273,112.805364,832.03,125.267773,836.211818,134.551849C842.317273,148.268863,848.422727,162.153158,860.55,162.153158ZM860.55,152.952722L869.75,152.952722L869.75,103.604928L860.55,103.604928ZM811.204545,162.153158L820.404545,162.153158L820.404545,112.805364L811.204545,112.805364ZM296.422727,239.958115L305.622727,239.958115L305.622727,196.465144C305.648864,192.44974,304.059629,188.592425,301.212529,185.760921C298.365431,182.929417,294.499553,181.361502,290.484545,181.409885L256.193636,181.409885L256.193636,190.610321L290.484545,190.610321C292.048911,190.597377,293.554151,191.20739,294.668179,192.30578C295.782208,193.40417,296.413482,194.900678,296.422727,196.465144ZM247.077273,239.958115L256.193636,239.958115L256.193636,221.139041L290.568182,221.139041L290.568182,211.938604L256.193636,211.938604L256.193636,190.610321L247.077273,190.610321ZM312.313636,230.757678L321.513636,230.757678L321.513636,181.409885L312.313636,181.409885ZM373.368182,230.757678L382.568182,230.757678L382.568182,181.409885L373.368182,181.409885ZM321.513636,239.958115C335.313636,239.958115,339.662727,228.081188,343.091818,213.862332C343.928182,210.263853,345.35,203.658212,347.440909,202.483357C349.448182,203.650431,350.87,209.927346,351.706364,213.774801C355.051818,227.995602,359.233636,239.958115,373.368182,239.958115L373.368182,230.757678C365.255455,230.757678,362.997273,221.640883,360.655455,211.604043C358.480909,202.236326,355.971818,193.119531,347.440909,193.119531C338.91,193.119531,336.651818,201.901765,334.142727,211.771324C331.800909,221.557242,329.3774,230.757678,321.513636,230.757678ZM438.604545,239.958115L447.804545,239.958115L447.804545,196.465144C447.830682,192.44974,446.241447,188.592425,443.394347,185.760921C440.547249,182.929417,436.681371,181.361502,432.666364,181.409885L398.375455,181.409885L398.375455,190.610321L432.666364,190.610321C434.230729,190.597377,435.735969,191.20739,436.849998,192.30578C437.964026,193.40417,438.5953,194.900678,438.604545,196.465144ZM389.259091,239.958115L398.375455,239.958115L398.375455,221.139041L432.75,221.139041L432.75,211.938604L398.375455,211.938604L398.375455,190.610321L389.259091,190.610321ZM454.495455,190.610321L508.022727,190.610321L508.022727,181.409885L454.495455,181.409885ZM491.713636,239.958115L508.022727,239.958115L508.022727,230.757678L491.713636,230.757678C488.484251,230.748065,485.868704,228.132394,485.859091,224.902855L485.859091,196.465144L476.742727,196.465144L476.742727,224.902855C476.707085,228.892068,478.270223,232.72945,481.083134,235.558209C483.896044,238.386968,487.724476,239.971534,491.713636,239.958115ZM454.495455,239.958115L476.659091,239.958115L476.659091,230.757678L454.495455,230.757678ZM539.47,239.958115L548.586364,239.958115L548.586364,196.465144C548.631638,192.458532,547.060082,188.602805,544.226933,185.769522C541.393784,182.936239,537.53824,181.364608,533.531818,181.409885L514.713636,181.409885L514.713636,190.610321L533.531818,190.610321C535.096184,190.597377,536.601423,191.20739,537.715452,192.30578C538.829481,193.40417,539.460754,194.900678,539.47,196.465144ZM548.586364,190.610321L573.259091,190.610321L573.259091,181.409885L548.586364,181.409885ZM629.295455,198.974354L638.495455,198.974354C638.495455,188.853874,632.306364,181.409885,623.440909,181.409885L589.15,181.409885L589.15,190.610321L622.604545,190.610321C626.702727,190.610321,629.295455,194.457776,629.295455,198.974354ZM629.295455,230.757678L638.495455,230.757678L638.495455,221.139041C638.495455,212.273166,632.306364,206.083781,623.440909,206.083781L595.004545,206.083781C591.77516,206.074168,589.159613,203.458497,589.15,200.228958L589.15,190.610321L579.95,190.610321L579.95,200.228958C579.95,209.011193,586.222727,215.284218,595.004545,215.284218L623.440909,215.284218C624.99657,215.274567,626.49131,215.888313,627.591349,216.988404C628.691388,218.088495,629.305105,219.583306,629.295455,221.139041ZM595.004545,239.958115L629.295455,239.958115L629.295455,230.757678L595.840909,230.757678C591.826364,230.757678,589.15,226.910223,589.15,222.393646L579.95,222.393646C579.95,232.430485,586.222727,239.958115,595.004545,239.958115ZM693.695455,239.958115L727.986364,239.958115L727.986364,230.757678L693.695455,230.757678C692.139794,230.767329,690.645054,230.153583,689.545015,229.053492C688.444976,227.953401,687.831259,226.45859,687.840909,224.902855L687.840909,181.409885L678.640909,181.409885L678.640909,224.902855C678.595635,228.909467,680.167191,232.765194,683.00034,235.598477C685.833489,238.43176,689.689033,240.003391,693.695455,239.958115ZM727.986364,230.757678L737.186364,230.757678L737.186364,181.409885L727.986364,181.409885ZM793.222727,198.974354L802.422727,198.974354C802.422727,188.853874,796.233636,181.409885,787.368182,181.409885L753.077273,181.409885L753.077273,190.610321L786.531818,190.610321C790.63,190.610321,793.222727,194.457776,793.222727,198.974354ZM793.222727,230.757678L802.422727,230.757678L802.422727,221.139041C802.422727,212.273166,796.233636,206.083781,787.368182,206.083781L758.931818,206.083781C755.702432,206.074168,753.086886,203.458497,753.077273,200.228958L753.077273,190.610321L743.877273,190.610321L743.877273,200.228958C743.877273,209.011193,750.15,215.284218,758.931818,215.284218L787.368182,215.284218C788.923842,215.274567,790.418583,215.888313,791.518622,216.988404C792.618661,218.088495,793.232378,219.583306,793.222727,221.139041ZM758.931818,239.958115L793.222727,239.958115L793.222727,230.757678L759.768182,230.757678C755.753636,230.757678,753.077273,226.910223,753.077273,222.393646L743.877273,222.393646C743.877273,232.430485,750.15,239.958115,758.931818,239.958115Z" transform="matrix(1 0 0 1 -170 -22.778941)" fill="rgb(253,255,0)" stroke="none" stroke-width="1"/></svg>