<svg xmlns="http://www.w3.org/2000/svg" xmlns:xlink="http://www.w3.org/1999/xlink" width="558.9" height="64" viewBox="0 0 558.9 64">
  <defs>
    <filter id="Path_18397" x="0" y="0" width="558.9" height="64" filterUnits="userSpaceOnUse">
      <feOffset input="SourceAlpha"/>
      <feGaussianBlur stdDeviation="2.5" result="blur"/>
      <feFlood flood-color="#bc116f"/>
      <feComposite operator="in" in2="blur"/>
      <feComposite in="SourceGraphic"/>
    </filter>
  </defs>
  <g transform="matrix(1, 0, 0, 1, 0, 0)" filter="url(#Path_18397)">
    <path id="Path_18397-2" data-name="Path 18397" d="M428.27,70h7.63V33.6A12.46,12.46,0,0,0,423.3,21H407.55v7.7H423.3a4.93,4.93,0,0,1,4.97,4.9Zm7.63-41.3h20.65V21H435.9Zm67.55,33.6h7.7V33.6c0-7.42-5.25-12.6-12.6-12.6h-28.7v7.7h28.7a4.914,4.914,0,0,1,4.9,4.9ZM474.75,70h28.7V62.3h-28.7a4.87,4.87,0,0,1-4.9-4.9V28.7h-7.7V57.4C462.15,64.82,467.33,70,474.75,70Zm42,0h7.7V21h-7.7Zm39.2,0h7.7V60.2c0-4.13-1.47-7.21-5.88-9.8,4.41-2.59,5.88-6.02,5.88-11.9V21h-7.7V38.5c0,4.83-2.17,8.05-7,8.05h-19.6v7.7H550a5.769,5.769,0,0,1,5.95,5.95Zm21-41.3h41.3V21h-41.3Zm4.9,41.3h36.4V62.3h-36.4a4.914,4.914,0,0,1-4.9-4.9V28.7h-7.7V57.4A12.548,12.548,0,0,0,581.85,70Zm-.07-20.65h31.57v-7.7H581.78ZM665.15,70V62.3c-5.25,0-9.73-10.64-13.3-18.34C646.67,31.92,641.49,21,631.55,21v7.7c5.25,0,9.73,10.43,13.23,18.2C649.89,58.38,655,70,665.15,70Zm0-7.7h7.7V21h-7.7ZM623.85,70h7.7V28.7h-7.7Zm95.9-7.7h7.7V33.6c0-7.42-5.25-12.6-12.6-12.6h-28.7v7.7h28.7a4.914,4.914,0,0,1,4.9,4.9ZM691.05,70h28.7V62.3h-28.7a4.87,4.87,0,0,1-4.9-4.9V28.7h-7.7V57.4C678.45,64.82,683.63,70,691.05,70Zm71.4,0c7.63,0,9.45-11.62,11.06-20.37,1.96-10.29,4.2-20.93,10.64-20.93V21c-12.11,0-15.33,12.53-18.2,27.16-.77,4.13-1.96,12.18-3.5,13.44-1.33-.91-2.8-9.24-3.64-13.51C756.08,33.81,752.72,21,740.75,21v7.7c6.44,0,8.54,10.78,10.5,20.79C753.07,58.8,754.96,70,762.45,70Zm-29.4,0h7.7V28.7h-7.7Zm51.1,0h7.7V28.7h-7.7Zm13.3-41.3h44.8V21h-44.8ZM828.6,70h13.65V62.3H828.6a4.914,4.914,0,0,1-4.9-4.9V33.6h-7.63V57.4A12.488,12.488,0,0,0,828.6,70Zm-31.15,0H816V62.3H797.45Zm50.4-7.7h7.7V33.6a4.87,4.87,0,0,1,4.9-4.9h28.7V21h-28.7a12.46,12.46,0,0,0-12.6,12.6Zm41.3-25.9h7.7V28.7h-7.7ZM855.55,70h41.3V57.4h-7.7v4.9h-33.6Zm88.2-34.3h7.7c0-8.47-5.18-14.7-12.6-14.7h-28.7v7.7h28C941.58,28.7,943.75,31.92,943.75,35.7Zm0,26.6h7.7V54.25c0-7.42-5.18-12.6-12.6-12.6h-23.8a4.914,4.914,0,0,1-4.9-4.9V28.7h-7.7v8.05a12.131,12.131,0,0,0,12.6,12.6h23.8a4.87,4.87,0,0,1,4.9,4.9ZM915.05,70h28.7V62.3h-28c-3.36,0-5.6-3.22-5.6-7h-7.7C902.45,63.7,907.7,70,915.05,70Z" transform="translate(-400.05 -13.5)" fill="#ff2194"/>
  </g>
</svg>
