<svg xmlns="http://www.w3.org/2000/svg" xmlns:xlink="http://www.w3.org/1999/xlink" width="411.6" height="60" viewBox="0 0 411.6 60">
  <defs>
    <filter id="Path_18406" x="0" y="0" width="411.6" height="60" filterUnits="userSpaceOnUse">
      <feOffset input="SourceAlpha"/>
      <feGaussianBlur stdDeviation="3" result="blur"/>
      <feFlood flood-color="#bc116f"/>
      <feComposite operator="in" in2="blur"/>
      <feComposite in="SourceGraphic"/>
    </filter>
  </defs>
  <g transform="matrix(1, 0, 0, 1, 0, 0)" filter="url(#Path_18406)">
    <path id="Path_18406-2" data-name="Path 18406" d="M518.1,60V53.4c-4.5,0-8.34-9.12-11.4-15.72C502.26,27.36,497.82,18,489.3,18v6.6c4.5,0,8.34,8.94,11.34,15.6C505.02,50.04,509.4,60,518.1,60Zm0-6.6h6.6V18h-6.6ZM482.7,60h6.6V24.6h-6.6Zm46.8,0h6.6V28.8a4.174,4.174,0,0,1,4.2-4.2h31.2V18H540.3a10.68,10.68,0,0,0-10.8,10.8Zm10.8-15.9h27V37.5h-27ZM594.06,60h6.54V28.8A10.68,10.68,0,0,0,589.8,18H576.3v6.6h13.5a4.225,4.225,0,0,1,4.26,4.2Zm6.54-35.4h17.7V18H600.6Zm81.9,28.8h6.6V28.8A10.68,10.68,0,0,0,678.3,18H653.7v6.6h24.6a4.174,4.174,0,0,1,4.2,4.2ZM647.1,60h35.4V53.4H653.7V24.6h-6.6Zm82.2,0h6.6V51.6a12.612,12.612,0,0,0-3.24-8.4,12.612,12.612,0,0,0,3.24-8.4v-6A10.68,10.68,0,0,0,725.1,18H700.5v6.6h24.6a4.174,4.174,0,0,1,4.2,4.2v6c0,2.34-1.86,5.1-4.2,5.1H704.7v6.6h20.4c2.34,0,4.2,2.76,4.2,5.1Zm-35.4,0h6.6V24.6h-6.6Zm82.2-6.6h6.6V28.8A10.365,10.365,0,0,0,771.9,18H747.3v6.6h24.6a4.212,4.212,0,0,1,4.2,4.2ZM751.5,60h24.6V53.4H751.5a4.174,4.174,0,0,1-4.2-4.2V24.6h-6.6V49.2C740.7,55.56,745.14,60,751.5,60Zm46.8-13.5h20.46A10.7,10.7,0,0,0,829.5,35.7V28.8A10.667,10.667,0,0,0,818.76,18H794.1v6.6h24.66a4.212,4.212,0,0,1,4.2,4.2v6.9a4.212,4.212,0,0,1-4.2,4.2H798.3ZM787.5,60h6.6V24.6h-6.6Zm82.2-29.4h6.6c0-7.26-4.44-12.6-10.8-12.6H840.9v6.6h24C867.84,24.6,869.7,27.36,869.7,30.6Zm0,22.8h6.6V46.5c0-6.36-4.44-10.8-10.8-10.8H845.1a4.212,4.212,0,0,1-4.2-4.2V24.6h-6.6v6.9a10.4,10.4,0,0,0,10.8,10.8h20.4a4.174,4.174,0,0,1,4.2,4.2ZM845.1,60h24.6V53.4h-24c-2.88,0-4.8-2.76-4.8-6h-6.6C834.3,54.6,838.8,60,845.1,60Z" transform="translate(-473.7 -9)" fill="#ff0294"/>
  </g>
</svg>
