<svg xmlns="http://www.w3.org/2000/svg" xmlns:xlink="http://www.w3.org/1999/xlink" width="308.04" height="303.4" viewBox="0 0 308.04 303.4">
  <defs>
    <filter id="Path_18409" x="55" y="0" width="197.84" height="40.4" filterUnits="userSpaceOnUse">
      <feOffset input="SourceAlpha"/>
      <feGaussianBlur stdDeviation="3" result="blur"/>
      <feFlood flood-color="#bd1c60"/>
      <feComposite operator="in" in2="blur"/>
      <feComposite in="SourceGraphic"/>
    </filter>
    <filter id="Path_18408" x="56.5" y="50.9" width="194.76" height="105" filterUnits="userSpaceOnUse">
      <feOffset input="SourceAlpha"/>
      <feGaussianBlur stdDeviation="3.5" result="blur-2"/>
      <feFlood flood-color="#933e6a"/>
      <feComposite operator="in" in2="blur-2"/>
      <feComposite in="SourceGraphic"/>
    </filter>
  </defs>
  <g id="Group_6831" data-name="Group 6831" transform="translate(-8482.8 11710.4)">
    <g transform="matrix(1, 0, 0, 1, 8482.8, -11710.4)" filter="url(#Path_18409)">
      <path id="Path_18409-2" data-name="Path 18409" d="M20.16,16.32h3.52c0-3.872-2.368-6.72-5.76-6.72H4.8v3.52H17.6C19.168,13.12,20.16,14.592,20.16,16.32Zm0,12.16h3.52V24.8a5.51,5.51,0,0,0-5.76-5.76H7.04A2.247,2.247,0,0,1,4.8,16.8V13.12H1.28V16.8a5.546,5.546,0,0,0,5.76,5.76H17.92a2.226,2.226,0,0,1,2.24,2.24ZM7.04,32H20.16V28.48H7.36c-1.536,0-2.56-1.472-2.56-3.2H1.28C1.28,29.12,3.68,32,7.04,32ZM29.76,13.12H48.64V9.6H29.76ZM32,32H48.64V28.48H32a2.247,2.247,0,0,1-2.24-2.24V13.12H26.24V26.24A5.736,5.736,0,0,0,32,32Zm-.032-9.44H46.4V19.04H31.968ZM56.96,32H71.68V28.48H56.96a2.226,2.226,0,0,1-2.24-2.24V9.6H51.2V26.24A5.7,5.7,0,0,0,56.96,32ZM80,32H94.72V28.48H80a2.226,2.226,0,0,1-2.24-2.24V9.6H74.24V26.24A5.7,5.7,0,0,0,80,32Zm39.552,0h3.488V15.36a5.7,5.7,0,0,0-5.76-5.76h-7.2v3.52h7.2a2.254,2.254,0,0,1,2.272,2.24Zm3.488-18.88h9.44V9.6h-9.44ZM152.64,32h3.52V15.36a5.723,5.723,0,0,0-5.792-5.76h-13.12v3.52h13.12a2.254,2.254,0,0,1,2.272,2.24Zm-18.88,0h3.488V24.8H150.4V21.28H137.248V13.12H133.76Zm24.96,0h3.52V25.92a2.731,2.731,0,0,1,2.72-2.72h3.808V19.68H165.44c-2.208,0-3.2-1.472-3.2-3.68V9.6h-3.52V16c0,2.688.672,4.256,2.688,5.44a4.881,4.881,0,0,0-2.688,4.48Zm18.88,0h3.52V25.92a4.881,4.881,0,0,0-2.688-4.48c2.016-1.184,2.688-2.752,2.688-5.44V9.6H177.6V16c0,2.208-.992,3.68-3.2,3.68h-3.36V23.2h3.84a2.731,2.731,0,0,1,2.72,2.72Z" transform="translate(62.72 -0.6)" fill="#ff8ec9"/>
    </g>
    <path id="Path_18410" data-name="Path 18410" d="M7.32,16.4H9.5V9.6A3.45,3.45,0,0,0,5.92,6H1.4V8.2H5.92a1.4,1.4,0,0,1,1.4,1.4ZM.8,20H14.2V17.8H.8Zm17.68-7.84a2.685,2.685,0,0,0,2.7-2.68v-.8a2.69,2.69,0,0,0-5.38,0v.8A2.68,2.68,0,0,0,18.48,12.16ZM17,20h2.36l8.6-14H25.6Zm1.48-9.56a1.044,1.044,0,0,1-1-1V8.72a1.02,1.02,0,0,1,2.04,0v.72A1.052,1.052,0,0,1,18.48,10.44ZM26.46,20a2.685,2.685,0,0,0,2.7-2.68v-.8a2.69,2.69,0,0,0-5.38,0v.8A2.68,2.68,0,0,0,26.46,20Zm0-1.72a1.044,1.044,0,0,1-1-1v-.72a1.02,1.02,0,0,1,2.04,0v.72A1.052,1.052,0,0,1,26.46,18.28ZM38.76,20h2.2V9.6a1.391,1.391,0,0,1,1.4-1.4h10.4V6H42.36a3.56,3.56,0,0,0-3.6,3.6Zm3.6-5.3h9V12.5h-9ZM57.96,20h9.2V17.8h-9.2a1.391,1.391,0,0,1-1.4-1.4V6h-2.2V16.4A3.56,3.56,0,0,0,57.96,20Zm22.6-2.2h2.2V9.6A3.455,3.455,0,0,0,79.16,6h-8.2V8.2h8.2a1.4,1.4,0,0,1,1.4,1.4ZM72.36,20h8.2V17.8h-8.2a1.391,1.391,0,0,1-1.4-1.4V8.2h-2.2v8.2A3.444,3.444,0,0,0,72.36,20Zm12,0h2.2V6h-2.2Zm11.2,0h2.2V17.2a2.956,2.956,0,0,0-1.68-2.8c1.26-.74,1.68-1.72,1.68-3.4V6h-2.2v5c0,1.38-.62,2.3-2,2.3h-5.6v2.2h5.9a1.648,1.648,0,0,1,1.7,1.7Zm3.8-11.8h12.8V6H99.36Zm8.9,11.8h3.9V17.8h-3.9a1.4,1.4,0,0,1-1.4-1.4V9.6h-2.18v6.8A3.568,3.568,0,0,0,108.26,20Zm-8.9,0h5.3V17.8h-5.3Zm26.2,0V17.8c-1.5,0-2.78-3.04-3.8-5.24C120.28,9.12,118.8,6,115.96,6V8.2c1.5,0,2.78,2.98,3.78,5.2C121.2,16.68,122.66,20,125.56,20Zm0-2.2h2.2V6h-2.2ZM113.76,20h2.2V8.2h-2.2Zm27.2,0h9.2V17.8h-9.2a1.391,1.391,0,0,1-1.4-1.4V6h-2.2V16.4A3.56,3.56,0,0,0,140.96,20Zm22.6,0h2.2V9.6A3.577,3.577,0,0,0,162.14,6h-8.2V8.2h8.2a1.408,1.408,0,0,1,1.42,1.4Zm-11.8,0h2.18V15.5h8.22V13.3h-8.22V8.2h-2.18Zm19.2,0h8.2V17.8h-8.2a1.391,1.391,0,0,1-1.4-1.4V6h-2.2V16.4A3.56,3.56,0,0,0,170.96,20Zm8.2-2.2h2.2V6h-2.2Zm15.6,2.2V17.8c-1.5,0-2.78-3.04-3.8-5.24C189.48,9.12,188,6,185.16,6V8.2c1.5,0,2.78,2.98,3.78,5.2C190.4,16.68,191.86,20,194.76,20Zm0-2.2h2.2V6h-2.2ZM182.96,20h2.2V8.2h-2.2Zm15.6-2.2h2.2V9.6a1.391,1.391,0,0,1,1.4-1.4h8.2V6h-8.2a3.56,3.56,0,0,0-3.6,3.6Zm11.8-7.4h2.2V8.2h-2.2Zm-9.6,9.6h11.8V16.4h-2.2v1.4h-9.6Zm13.4-7h2.18V6h-2.18Zm11.82,7h2.18V6h-2.18Zm-11.82,0h2.2V16.6a1.391,1.391,0,0,1,1.4-1.4h6.8V13h-6.8a3.56,3.56,0,0,0-3.6,3.6Zm19.2-4.5h6.82a3.568,3.568,0,0,0,3.58-3.6V9.6A3.556,3.556,0,0,0,240.18,6h-8.22V8.2h8.22a1.4,1.4,0,0,1,1.4,1.4v2.3a1.4,1.4,0,0,1-1.4,1.4h-6.82Zm-3.6,4.5h2.2V8.2h-2.2Zm27.4,0h2.2V9.6A3.577,3.577,0,0,0,255.74,6h-8.2V8.2h8.2a1.408,1.408,0,0,1,1.42,1.4Zm-11.8,0h2.18V15.5h8.22V13.3h-8.22V8.2h-2.18Zm27.4-2.2h2.2V9.6a3.56,3.56,0,0,0-3.6-3.6h-8.2V8.2h8.2a1.391,1.391,0,0,1,1.4,1.4ZM260.96,20h11.8V17.8h-9.6V8.2h-2.2Z" transform="translate(8499 -11529)" fill="#fff"/>
    <path id="Path_18411" data-name="Path 18411" d="M.8,10.2H3c0-1.08.62-2,1.6-2h8V6H4.4C2.28,6,.8,7.78.8,10.2Zm0,7.6H3V16.1a1.391,1.391,0,0,1,1.4-1.4h6.8a3.466,3.466,0,0,0,3.6-3.6V8.2H12.6v2.9a1.4,1.4,0,0,1-1.4,1.4H4.4A3.444,3.444,0,0,0,.8,16.1ZM3,20H14.8V17.8H3Zm16.08-7.84a2.685,2.685,0,0,0,2.7-2.68v-.8a2.69,2.69,0,0,0-5.38,0v.8A2.68,2.68,0,0,0,19.08,12.16ZM17.6,20h2.36l8.6-14H26.2Zm1.48-9.56a1.044,1.044,0,0,1-1-1V8.72a1.02,1.02,0,0,1,2.04,0v.72A1.052,1.052,0,0,1,19.08,10.44ZM27.06,20a2.685,2.685,0,0,0,2.7-2.68v-.8a2.69,2.69,0,0,0-5.38,0v.8A2.68,2.68,0,0,0,27.06,20Zm0-1.72a1.044,1.044,0,0,1-1-1v-.72a1.02,1.02,0,0,1,2.04,0v.72A1.052,1.052,0,0,1,27.06,18.28Zm24.1-.48h2.2V9.6A3.56,3.56,0,0,0,49.76,6h-8.2V8.2h8.2a1.391,1.391,0,0,1,1.4,1.4ZM39.36,20h11.8V17.8h-9.6V8.2h-2.2ZM57.16,8.2h11.8V6H57.16ZM58.56,20h10.4V17.8H58.56a1.4,1.4,0,0,1-1.4-1.4V8.2h-2.2v8.2A3.585,3.585,0,0,0,58.56,20Zm-.02-5.9h9.02V11.9H58.54Zm19.04,5.92c2.68,0,3.52-3,4.44-6.6.46-1.88,1.18-5.22,2.56-5.22V6c-2.88,0-3.8,3.28-4.7,6.88-.38,1.54-1.12,5.02-2.3,5.02s-1.9-3.34-2.32-5.02C74.34,9.16,73.38,6,70.56,6V8.2c1.36,0,2.08,3.26,2.56,5.2C73.98,16.82,74.84,20.02,77.58,20.02Z" transform="translate(8594 -11495)" fill="#fff"/>
    <path id="Path_18412" data-name="Path 18412" d="M12.6,17.8h2.2V15.94A4.021,4.021,0,0,0,13.72,13a4.244,4.244,0,0,0,1.08-2.96A3.772,3.772,0,0,0,11.1,6H1.2V8.2h9.9c.88,0,1.5.76,1.5,1.84a1.709,1.709,0,0,1-1.5,1.86H2.2v2.2h8.9a1.689,1.689,0,0,1,1.5,1.84ZM.8,20H12.6V17.8H.8Zm18.28-7.84a2.685,2.685,0,0,0,2.7-2.68v-.8a2.69,2.69,0,0,0-5.38,0v.8A2.68,2.68,0,0,0,19.08,12.16ZM17.6,20h2.36l8.6-14H26.2Zm1.48-9.56a1.044,1.044,0,0,1-1-1V8.72a1.02,1.02,0,0,1,2.04,0v.72A1.052,1.052,0,0,1,19.08,10.44ZM27.06,20a2.685,2.685,0,0,0,2.7-2.68v-.8a2.69,2.69,0,0,0-5.38,0v.8A2.68,2.68,0,0,0,27.06,20Zm0-1.72a1.044,1.044,0,0,1-1-1v-.72a1.02,1.02,0,0,1,2.04,0v.72A1.052,1.052,0,0,1,27.06,18.28ZM47.76,20c2.18,0,2.7-3.32,3.16-5.82.56-2.94,1.2-5.98,3.04-5.98V6c-3.46,0-4.38,3.58-5.2,7.76-.22,1.18-.56,3.48-1,3.84-.38-.26-.8-2.64-1.04-3.86C45.94,9.66,44.98,6,41.56,6V8.2c1.84,0,2.44,3.08,3,5.94C45.08,16.8,45.62,20,47.76,20Zm-8.4,0h2.2V8.2h-2.2Zm14.6,0h2.2V8.2h-2.2Zm15.6,0h2.2V9.6A3.577,3.577,0,0,0,68.14,6h-8.2V8.2h8.2a1.408,1.408,0,0,1,1.42,1.4Zm-11.8,0h2.18V15.5h8.22V13.3H59.94V8.2H57.76Zm27.4,0h2.2V17.2a4.2,4.2,0,0,0-1.08-2.8,4.2,4.2,0,0,0,1.08-2.8v-2A3.56,3.56,0,0,0,83.76,6h-8.2V8.2h8.2a1.391,1.391,0,0,1,1.4,1.4v2c0,.78-.62,1.7-1.4,1.7h-6.8v2.2h6.8c.78,0,1.4.92,1.4,1.7Zm-11.8,0h2.2V8.2h-2.2Zm15.6,0h2.2V6h-2.2Zm11.2,0h2.2V17.2a2.956,2.956,0,0,0-1.68-2.8c1.26-.74,1.68-1.72,1.68-3.4V6h-2.2v5c0,1.38-.62,2.3-2,2.3h-5.6v2.2h5.9a1.648,1.648,0,0,1,1.7,1.7Zm6-11.8h11.8V6h-11.8Zm1.4,11.8h10.4V17.8h-10.4a1.4,1.4,0,0,1-1.4-1.4V8.2h-2.2v8.2A3.585,3.585,0,0,0,107.56,20Zm-.02-5.9h9.02V11.9h-9.02ZM125.48,20h2.18V9.6a3.56,3.56,0,0,0-3.6-3.6h-4.5V8.2h4.5a1.408,1.408,0,0,1,1.42,1.4Zm2.18-11.8h5.9V6h-5.9Zm7.5,0h12.8V6h-12.8Zm8.9,11.8h3.9V17.8h-3.9a1.4,1.4,0,0,1-1.4-1.4V9.6h-2.18v6.8A3.568,3.568,0,0,0,144.06,20Zm-8.9,0h5.3V17.8h-5.3Zm26.2,0V17.8c-1.5,0-2.78-3.04-3.8-5.24C156.08,9.12,154.6,6,151.76,6V8.2c1.5,0,2.78,2.98,3.78,5.2C157,16.68,158.46,20,161.36,20Zm0-2.2h2.2V6h-2.2ZM149.56,20h2.2V8.2h-2.2Zm19.18,0h8.22V17.8h-8.22a1.4,1.4,0,0,1-1.4-1.4V9.6a1.4,1.4,0,0,1,1.4-1.4h9.02V6h-9.02a3.556,3.556,0,0,0-3.58,3.6v6.8A3.568,3.568,0,0,0,168.74,20Zm8.24-2.2h2.18V11.9h-8.42v2.2h6.24Z" transform="translate(8547 -11461)" fill="#fff"/>
    <path id="Path_18413" data-name="Path 18413" d="M12.6,17.8h2.2V15.94A4.021,4.021,0,0,0,13.72,13a4.244,4.244,0,0,0,1.08-2.96A3.772,3.772,0,0,0,11.1,6H1.2V8.2h9.9c.88,0,1.5.76,1.5,1.84a1.709,1.709,0,0,1-1.5,1.86H2.2v2.2h8.9a1.689,1.689,0,0,1,1.5,1.84ZM.8,20H12.6V17.8H.8Zm18.28-7.84a2.685,2.685,0,0,0,2.7-2.68v-.8a2.69,2.69,0,0,0-5.38,0v.8A2.68,2.68,0,0,0,19.08,12.16ZM17.6,20h2.36l8.6-14H26.2Zm1.48-9.56a1.044,1.044,0,0,1-1-1V8.72a1.02,1.02,0,0,1,2.04,0v.72A1.052,1.052,0,0,1,19.08,10.44ZM27.06,20a2.685,2.685,0,0,0,2.7-2.68v-.8a2.69,2.69,0,0,0-5.38,0v.8A2.68,2.68,0,0,0,27.06,20Zm0-1.72a1.044,1.044,0,0,1-1-1v-.72a1.02,1.02,0,0,1,2.04,0v.72A1.052,1.052,0,0,1,27.06,18.28ZM42.96,20h9.2V17.8h-9.2a1.391,1.391,0,0,1-1.4-1.4V6h-2.2V16.4A3.56,3.56,0,0,0,42.96,20ZM53.76,8.2h12.8V6H53.76ZM62.66,20h3.9V17.8h-3.9a1.4,1.4,0,0,1-1.4-1.4V9.6H59.08v6.8A3.568,3.568,0,0,0,62.66,20Zm-8.9,0h5.3V17.8h-5.3Zm14.4-2.2h2.18V9.6a1.408,1.408,0,0,1,1.42-1.4h7.9V6h-7.9a3.56,3.56,0,0,0-3.6,3.6Zm2.2,2.2h7.9a3.511,3.511,0,0,0,2.5-1.08A4.2,4.2,0,0,0,83.56,20V17.8c-.78,0-1.72-.62-1.72-1.4V8.2H79.66v8.2a1.4,1.4,0,0,1-1.4,1.4h-7.9Zm18.4,0h8.2V17.8h-8.2a1.391,1.391,0,0,1-1.4-1.4V6h-2.2V16.4A3.56,3.56,0,0,0,88.76,20Zm8.2-2.2h2.2V6h-2.2Zm3.8-9.6h12.8V6h-12.8Zm8.9,11.8h3.9V17.8h-3.9a1.4,1.4,0,0,1-1.4-1.4V9.6h-2.18v6.8A3.568,3.568,0,0,0,109.66,20Zm-8.9,0h5.3V17.8h-5.3Zm26.2-2.2h2.2V9.6a3.56,3.56,0,0,0-3.6-3.6h-8.2V8.2h8.2a1.391,1.391,0,0,1,1.4,1.4ZM115.16,20h11.8V17.8h-9.6V8.2h-2.2Zm15.6-11.8h12.8V6h-12.8Zm8.9,11.8h3.9V17.8h-3.9a1.4,1.4,0,0,1-1.4-1.4V9.6h-2.18v6.8A3.568,3.568,0,0,0,139.66,20Zm-8.9,0h5.3V17.8h-5.3Zm20.32,0h2.18V9.6a3.56,3.56,0,0,0-3.6-3.6h-4.5V8.2h4.5a1.408,1.408,0,0,1,1.42,1.4Zm2.18-11.8h5.9V6h-5.9Zm11.1,7.3h6.8V13.3h-6.8a1.391,1.391,0,0,1-1.4-1.4V6h-2.2v5.9A3.56,3.56,0,0,0,164.36,15.5Zm-2.2,4.5h9a3.56,3.56,0,0,0,3.6-3.6V6h-2.2V16.4a1.391,1.391,0,0,1-1.4,1.4h-9Zm22.2,0h2.36l4.92-14h-2.36Zm29.28-2.2h2.2V15.94A4.021,4.021,0,0,0,214.76,13a4.244,4.244,0,0,0,1.08-2.96A3.772,3.772,0,0,0,212.14,6h-8.12V8.2h8.12a1.689,1.689,0,0,1,1.5,1.84,1.709,1.709,0,0,1-1.5,1.86h-6.72v2.2h6.72a1.689,1.689,0,0,1,1.5,1.84ZM205.42,20h8.22V17.8h-8.22a1.4,1.4,0,0,1-1.4-1.4V8.2h-2.18v8.2A3.568,3.568,0,0,0,205.42,20Zm15.62,0h8.2V17.8h-8.2a1.391,1.391,0,0,1-1.4-1.4V6h-2.2V16.4A3.56,3.56,0,0,0,221.04,20Zm8.2-2.2h2.2V6h-2.2Zm7.4-2.3h6.8V13.3h-6.8a1.391,1.391,0,0,1-1.4-1.4V6h-2.2v5.9A3.56,3.56,0,0,0,236.64,15.5Zm-2.2,4.5h9a3.56,3.56,0,0,0,3.6-3.6V6h-2.2V16.4a1.391,1.391,0,0,1-1.4,1.4h-9Zm26-2.2h2.2V15.94A4.021,4.021,0,0,0,261.56,13a4.244,4.244,0,0,0,1.08-2.96A3.772,3.772,0,0,0,258.94,6h-8.12V8.2h8.12a1.689,1.689,0,0,1,1.5,1.84,1.709,1.709,0,0,1-1.5,1.86h-6.72v2.2h6.72a1.689,1.689,0,0,1,1.5,1.84ZM252.22,20h8.22V17.8h-8.22a1.4,1.4,0,0,1-1.4-1.4V8.2h-2.18v8.2A3.568,3.568,0,0,0,252.22,20Zm23.82,0h2.2V9.6A3.577,3.577,0,0,0,274.62,6h-8.2V8.2h8.2a1.408,1.408,0,0,1,1.42,1.4Zm-11.8,0h2.18V15.5h8.22V13.3h-8.22V8.2h-2.18Zm15.6-2.2h2.2V9.6a1.391,1.391,0,0,1,1.4-1.4h8.2V6h-8.2a3.56,3.56,0,0,0-3.6,3.6Zm11.8-7.4h2.2V8.2h-2.2Zm-9.6,9.6h11.8V16.4h-2.2v1.4h-9.6Zm13.4,0h2.2V6h-2.2Zm11.2,0h2.2V17.2a2.956,2.956,0,0,0-1.68-2.8c1.26-.74,1.68-1.72,1.68-3.4V6h-2.2v5c0,1.38-.62,2.3-2,2.3h-5.6v2.2h5.9a1.648,1.648,0,0,1,1.7,1.7Z" transform="translate(8482 -11427)" fill="#fff"/>
    <g transform="matrix(1, 0, 0, 1, 8482.8, -11710.4)" filter="url(#Path_18408)">
      <path id="Path_18408-2" data-name="Path 18408" d="M4.8,76.2H17.88V57.6a8.425,8.425,0,0,1,8.4-8.4H75.6V36H26.28C13.68,36,4.8,45,4.8,57.6ZM11.4,120H67.32c12.6,0,21.48-8.88,21.48-21.6V49.2H75.72V98.4a8.425,8.425,0,0,1-8.4,8.4H11.4Zm6.48-30.6H67.32V76.2H17.88Zm96.6-16.44a16.107,16.107,0,0,0,16.2-16.08v-4.8a16.14,16.14,0,0,0-32.28,0v4.8A16.081,16.081,0,0,0,114.48,72.96ZM105.6,120h14.16l51.6-84H157.2Zm8.88-57.36a6.267,6.267,0,0,1-6-6V52.32a6.121,6.121,0,0,1,12.24,0v4.32A6.313,6.313,0,0,1,114.48,62.64ZM162.36,120a16.107,16.107,0,0,0,16.2-16.08v-4.8a16.14,16.14,0,0,0-32.28,0v4.8A16.081,16.081,0,0,0,162.36,120Zm0-10.32a6.267,6.267,0,0,1-6-6V99.36a6.121,6.121,0,0,1,12.24,0v4.32A6.313,6.313,0,0,1,162.36,109.68Z" transform="translate(62.2 25.4)" fill="#fff"/>
    </g>
  </g>
</svg>
